#N canvas 1924 16 1912 1019 10;
#X obj 1020 420 loadbang;
#X obj 1020 450 delay 100;
#X obj 380 590 dac~;
#X msg 1020 510 \; pd dsp 1 \;;
#X obj 180 230 notein 1;
#X obj 180 200 table sample;
#X obj 1040 360 openpanel;
#X obj 180 160 soundfiler;
#X obj 1040 335 bng 15 250 50 0 empty empty empty 0 -6 0 8 #fcfcfc
#000000 #000000;
#X text 1058 334 load a sample;
#X msg 290 230 set sample;
#X obj 280 200 line~;
#X obj 280 260 play~ sample;
#X obj 180 260 stripnote;
#X obj 390 450 freeverb~;
#X obj 160 460 hsl 128 15 0 0.5 0 1 empty empty Reverb\ Blend -2 -8
0 10 #fcfcfc #000000 #000000 2600 1;
#X obj 160 480 sig~;
#X obj 120 500 sig~ 1;
#X obj 190 530 -~;
#X obj 290 520 *~;
#X obj 390 490 *~;
#X obj 360 510 +~;
#X obj 430 480 *~;
#X obj 430 510 +~;
#X obj 160 420 hsl 128 15 200 20000 1 1 empty empty Fc -2 -8 0 10 #fcfcfc
#000000 #000000 5200 1;
#X obj 310 310 samphold~;
#X obj 370 280 phasor~;
#X obj 160 390 hsl 128 15 400 22050 0 1 empty empty S&H\ freq -2 -8
0 10 #fcfcfc #000000 #000000 12700 1;
#X obj 310 350 vcf~;
#X obj 20 420 hsl 128 15 0.1 10 1 1 empty empty Resonance -2 -8 0 10
#fcfcfc #000000 #000000 3800 1;
#X msg 160 310 0 \, 441 \$1;
#X msg 230 310 441 \, 0 \$1;
#X obj 160 330 mux;
#X obj 130 310 vradio 21 0 0 2 empty empty Direction 0 -8 0 10 #fcfcfc
#000000 #000000 0;
#X obj 310 400 *~;
#X obj 390 310 vsl 15 128 0.01 2 1 1 empty empty Clipping\ (protection)
0 -9 0 10 #fcfcfc #000000 #000000 12700 1;
#X obj 310 450 clip~;
#X obj 350 420 * -1;
#X msg 470 460 roomsize \$1;
#X msg 550 460 damping \$1;
#X obj 470 320 vsl 15 128 0 1 0 1 empty empty empty 0 -9 0 10 #fcfcfc
#000000 #000000 12700 1;
#X obj 550 320 vsl 15 128 0 1 0 1 empty empty empty 0 -9 0 10 #fcfcfc
#000000 #000000 11650 1;
#X obj 40 310 ctlin 21 1;
#X obj 40 230 ctlin 22 1;
#X obj 40 160 ctlin 23 1;
#X obj 40 330 mtof;
#X obj 40 350 * 2;
#X obj 40 250 mtof;
#X obj 40 270 * 3;
#X obj 380 80 delwrite~ d1 300;
#X obj 410 110 *~ 0.6;
#X obj 542 112 *~ 0.6;
#X obj 380 180 delread~ d1 250;
#X obj 430 540 +~;
#X obj 360 540 +~;
#X obj 510 230 *~ 0.5;
#X obj 380 230 *~ 0.5;
#X obj 30 180 / 256;
#X obj 670 90 vsl 15 128 0 1 0 1 empty empty Delay\ Level 0 -9 0 10
#fcfcfc #000000 #000000 0 1;
#X obj 750 90 vsl 15 128 0 294 0 1 empty empty Delay\ Time 0 -9 0 10
#fcfcfc #000000 #000000 5150 1;
#X obj 750 230 + 15;
#X obj 410 150 lop~;
#X obj 540 150 lop~;
#X obj 880 90 vsl 15 128 200 20000 1 1 empty empty Delay\ Filt 0 -9
0 10 #fcfcfc #000000 #000000 10300 1;
#X obj 820 90 vsl 15 128 0 0.9 0 1 empty empty Delay\ FB 0 -9 0 10
#fcfcfc #000000 #000000 4350 1;
#X obj 502 82 delwrite~ d2 300;
#X obj 502 182 delread~ d2 225;
#X msg 180 135 read -resize kick.wav sample;
#X obj 220 290 * 30;
#X obj 350 350 / 20;
#X obj 242 552 *~ 1;
#X obj 330 380 + 0.5;
#X connect 0 0 1 0;
#X connect 1 0 3 0;
#X connect 4 0 13 0;
#X connect 4 1 13 1;
#X connect 8 0 6 0;
#X connect 10 0 12 0;
#X connect 11 0 12 0;
#X connect 12 0 25 0;
#X connect 12 0 14 0;
#X connect 13 0 68 0;
#X connect 13 1 69 0;
#X connect 14 0 20 0;
#X connect 14 1 22 0;
#X connect 15 0 16 0;
#X connect 16 0 18 1;
#X connect 16 0 20 1;
#X connect 16 0 22 1;
#X connect 17 0 18 0;
#X connect 18 0 70 0;
#X connect 19 0 21 0;
#X connect 19 0 23 1;
#X connect 20 0 21 1;
#X connect 21 0 54 0;
#X connect 22 0 23 0;
#X connect 23 0 53 0;
#X connect 24 0 28 1;
#X connect 25 0 28 0;
#X connect 26 0 25 1;
#X connect 27 0 26 0;
#X connect 28 0 34 0;
#X connect 29 0 28 2;
#X connect 30 0 32 0;
#X connect 31 0 32 1;
#X connect 32 0 11 0;
#X connect 33 0 32 2;
#X connect 34 0 36 0;
#X connect 35 0 36 2;
#X connect 35 0 37 0;
#X connect 36 0 49 0;
#X connect 36 0 65 0;
#X connect 36 0 19 0;
#X connect 37 0 36 1;
#X connect 38 0 14 0;
#X connect 39 0 14 0;
#X connect 40 0 38 0;
#X connect 41 0 39 0;
#X connect 42 0 45 0;
#X connect 43 0 47 0;
#X connect 44 0 57 0;
#X connect 45 0 46 0;
#X connect 46 0 24 0;
#X connect 47 0 48 0;
#X connect 48 0 27 0;
#X connect 50 0 61 0;
#X connect 51 0 62 0;
#X connect 52 0 50 0;
#X connect 52 0 56 0;
#X connect 53 0 2 1;
#X connect 54 0 2 0;
#X connect 55 0 53 1;
#X connect 56 0 54 1;
#X connect 57 0 15 0;
#X connect 58 0 55 1;
#X connect 58 0 56 1;
#X connect 59 0 52 0;
#X connect 59 0 60 0;
#X connect 60 0 66 0;
#X connect 61 0 65 0;
#X connect 62 0 49 0;
#X connect 63 0 62 1;
#X connect 63 0 61 1;
#X connect 64 0 51 1;
#X connect 64 0 50 1;
#X connect 66 0 51 0;
#X connect 66 0 55 0;
#X connect 67 0 7 0;
#X connect 68 0 30 0;
#X connect 68 0 31 0;
#X connect 69 0 71 0;
#X connect 70 0 19 1;
#X connect 71 0 34 1;
